<mxfile host="app.diagrams.net" modified="2024-01-23T05:56:51.425Z" agent="Mozilla/5.0 (Macintosh; Intel Mac OS X 10_15_7) AppleWebKit/537.36 (KHTML, like Gecko) Chrome/120.0.0.0 Safari/537.36 Edg/120.0.0.0" version="22.1.18" etag="mAPkK5RvkWtAKlN7p4pJ" type="github">
  <diagram name="Page-1" id="7V3oBR_aUXM_rvpo8i3j">
    <mxGraphModel>
      <root>
        <mxCell id="0" />
        <mxCell id="1" parent="0" />
      </root>
    </mxGraphModel>
  </diagram>
</mxfile>
